<svg width="485" height="613" viewBox="0 0 485 613" fill="none" xmlns="http://www.w3.org/2000/svg"><path d="M483.552 416.22C492.607 512.519 391.906 599.866 258.63 611.312C125.354 622.753 9.97191 553.963 0.916898 457.667C-8.13809 361.365 92.5629 274.019 225.839 262.575C359.115 251.13 474.497 319.92 483.552 416.22Z" fill="#AFAFAF" fill-opacity="0.3"/><path d="M423.913 446.831L317.102 567.158C315.021 569.496 307.442 572.522 304.358 571.703L81.828 511.778L70.107 508.178C65.384 506.116 63.973 501.719 60.392 498.193C60.051 495.431 61.193 492.495 64.038 490.709L127.322 450.864L227.561 387.736C229.513 386.512 231.924 386.134 234.18 386.714L419.771 434.09C425.617 435.581 427.835 442.412 423.913 446.831Z" fill="#FF7878"/><path d="M44.184 470.423C44.184 492.894 62.51 511.111 85.117 511.111C107.724 511.111 126.05 492.894 126.05 470.423C126.05 447.952 107.724 429.736 85.117 429.736C62.51 429.736 44.184 447.952 44.184 470.423Z" fill="#FF7878"/><path d="M405.367 446.575C408.865 442.515 407.574 435.768 407.574 430.41V388.125L304.83 492.526L90.709 447.001C74.055 442.969 58.017 455.581 58.017 472.714C58.017 472.723 58.017 472.724 58.017 472.733C58.017 484.692 66.054 495.168 77.608 498.28L302.9 554.27C306.2 555.09 309.68 553.979 311.894 551.399L405.367 446.575Z" fill="#F7F7F7"/><path d="M288.197 498.639L87.047 444.838L55.371 442.829L141.614 344.994L399.071 391.64L307.947 495.01C301.539 501.801 297.229 501.008 288.197 498.639Z" fill="#FF7878"/><path d="M439.874 393.065C439.874 414.42 421.727 431.736 399.357 431.736C397.774 431.736 396.218 431.648 394.68 431.48C390.412 431.013 386.341 429.911 382.58 428.271C378.019 426.296 373.902 423.519 370.443 420.142C363.259 413.168 358.84 403.61 358.84 393.065C358.84 371.719 376.978 354.403 399.357 354.403C414.81 354.403 428.254 362.664 435.082 374.814C438.141 380.245 439.874 386.461 439.874 393.065Z" fill="#FFC200"/><path d="M163.883 490.111L47.735 362.348C43.16 357.315 45.77 349.217 52.423 347.803L214.014 313.467L416.474 428.19L181.368 495.139C175.058 496.906 168.291 494.96 163.883 490.111Z" fill="#FFC200"/><path d="M63.007 358.602C60.392 355.803 58.864 352.167 58.6889 348.346L56.434 299.893L178.85 421.914L178.859 425.311L389.951 368.563C406.927 364.015 423.674 376.618 423.978 394.193V394.681C423.978 406.815 415.858 417.504 403.144 421.085L185.944 480.283C181.664 481.449 177.09 480.156 174.054 476.921L63.007 358.602Z" fill="#F7F7F7"/><path d="M170.82 422.954L52.0719 305.261C46.9729 300.208 49.7349 291.504 56.8139 290.314L259.455 237.789L422.304 361.199L398.662 366.167L187.787 427.301C181.761 429.029 175.272 427.367 170.82 422.954Z" fill="#FFC200"/><path fill-rule="evenodd" clip-rule="evenodd" d="M198.187 357.399C210.945 363.691 216.187 379.134 209.896 391.892L206.197 399.392C199.905 412.151 184.462 417.393 171.704 411.101C158.945 404.809 153.703 389.366 159.995 376.608L163.693 369.108C169.985 356.349 185.428 351.107 198.187 357.399Z" fill="#F49000"/><path fill-rule="evenodd" clip-rule="evenodd" d="M333.283 321.844C342.663 311.149 358.937 310.083 369.632 319.462L375.919 324.976C386.614 334.355 387.681 350.629 378.302 361.324C368.922 372.02 352.648 373.086 341.953 363.707L335.666 358.193C324.97 348.814 323.904 332.54 333.283 321.844Z" fill="#F49000"/><path d="M425.629 279.921C425.344 312.63 410.179 327.821 385.369 325.969C360.559 324.118 335.501 305.924 335.787 273.216C336.072 240.507 353.148 218.445 377.958 220.297C397.396 232.526 422.291 248.849 425.629 279.921Z" fill="#58CC02"/><path d="M209.109 26.34C236.311 26.34 257.458 0.96698 300.968 0.96698C393.818 0.96698 391.611 83.882 391.611 184.577C391.611 214.937 386.05 386.471 230.7 386.471C56.133 386.471 68.644 174.334 68.85 87.412C68.85 27.704 124.294 15.856 150.105 15.856C175.905 15.856 191.399 26.34 209.109 26.34Z" fill="#58CC02"/><path fill-rule="evenodd" clip-rule="evenodd" d="M132.91 297.959C133.895 296.992 135.478 297.007 136.445 297.992C146.739 308.482 151.791 313.494 156.933 317.715C161.382 321.366 165.904 324.432 174.006 329.926C175.291 330.797 176.666 331.729 178.144 332.735C179.286 333.511 179.583 335.066 178.806 336.208C178.03 337.349 176.475 337.646 175.333 336.87C173.864 335.871 172.493 334.941 171.206 334.069C163.138 328.599 158.399 325.386 153.761 321.579C148.373 317.157 143.129 311.942 132.876 301.494C131.909 300.509 131.924 298.926 132.91 297.959Z" fill="#50BB00"/><path d="M373.584 123.03C377.458 132.666 376.627 147.745 372.183 157.078C382.029 160.967 384.474 183.536 384.474 198.507C384.474 207.169 384.024 227.322 379.764 251.705C370.404 282.889 350.6 293.259 341.054 294.823C306.072 300.991 302.596 273.317 300.146 271.799L267.266 274.394C259.256 288.731 234.026 317.404 197.186 317.404C151.146 317.404 127.936 285.064 125.035 242.406C121.479 190.115 130.646 186.097 144.566 175.218C140.766 153.46 149.626 144.099 152.406 142.328C155.196 140.557 163.796 148.653 174.676 160.038C171.386 144.858 171.886 126.136 182.516 126.136C183.816 126.136 187.786 130.03 193.666 135.789C211.766 153.538 245.772 184.674 277.512 178.444C295.742 174.867 321.124 163.129 328.094 138.806C332.534 123.302 336.094 110.891 340.554 110.891C349.474 110.891 355.604 128.096 357.374 136.951C358.444 134.809 359.364 131.885 360.294 128.953C362.104 123.225 363.914 117.469 366.864 117.469C369.444 117.469 371.754 120.08 373.584 123.03Z" fill="#89E219"/><path d="M274.223 266.645C285.925 266.645 295.412 276.471 295.412 288.591C295.412 300.711 285.925 310.536 274.223 310.536C262.521 310.536 253.034 300.711 253.034 288.591C253.034 276.471 262.521 266.645 274.223 266.645Z" fill="#F49000"/><path d="M305.206 280.657C305.52 271.734 298.21 263.992 283.982 261.649C266.754 258.812 252.918 274.728 251.808 281.468C254.574 294.011 278.495 299.893 289.828 301.778C291.221 302.182 293.162 301.861 294.384 299.893C298.374 294.679 304.997 286.728 305.206 280.657Z" fill="#FFC200"/><path fill-rule="evenodd" clip-rule="evenodd" d="M278.866 278.774C277.293 278.936 276.074 279.419 275.697 279.616C272.225 281.434 267.937 280.093 266.119 276.621C264.302 273.149 265.643 268.861 269.115 267.043C272.516 265.262 281.084 262.574 289.368 266.703C292.876 268.451 294.302 272.712 292.554 276.219C290.805 279.727 286.545 281.153 283.037 279.405C281.822 278.799 280.387 278.617 278.866 278.774Z" fill="#FFDE00"/><path d="M148.106 228.345C148.106 211.9 163.234 188.118 194.292 188.118C230.711 188.118 242.346 214.936 242.346 228.345V248.585C242.346 284.638 216.282 295.011 194.292 295.011C157.063 295.011 147.996 264.06 148.106 248.585V228.345Z" fill="white"/><path d="M308.717 216.401C308.717 188.109 320.62 175.723 342.514 172.356C353.922 170.601 370.404 178.119 370.404 204.237C370.404 214.467 369.957 223.329 369.037 230.993C364.009 272.874 345.667 279.818 329.808 279.818C315.281 279.818 308.717 264.702 308.717 252.537V216.401Z" fill="white"/><path d="M196.837 237.674C206.939 237.674 215.128 229.485 215.128 219.383C215.128 217.672 214.893 216.016 214.454 214.445C215.522 214.332 216.652 214.273 217.846 214.273C229.596 214.273 238.206 226.313 238.206 239.683V258.293C238.206 263.393 235.856 279.323 217.846 279.323C199.856 279.323 196.046 262.663 196.046 258.293V248.243C195.876 247.243 195.756 246.073 195.696 244.743C195.573 242.157 195.605 239.797 195.761 237.643C196.117 237.664 196.476 237.674 196.837 237.674Z" fill="#4B4B4B"/><path d="M317.337 226.629C324.384 224.559 329.258 217.774 328.649 210.163C328.504 208.347 328.058 206.626 327.363 205.047C329.375 203.805 331.702 202.978 334.378 202.764C345.478 201.875 350.7 210.01 351.5 220.008C352.3 230.006 353.929 266.223 333.906 267.826C318.163 269.086 318.006 257.075 317.921 250.364C317.917 249.4 317.906 248.546 317.851 247.856C317.701 245.975 317.665 243.805 317.629 241.593C317.592 239.292 317.553 236.946 317.384 234.833C317.19 231.785 317.194 229.058 317.337 226.629Z" fill="#4B4B4B"/><path d="M299.23 322.292C299.23 322.292 314.051 276.402 371.937 257.51C371.937 257.51 394.329 251.904 395.053 265.124C396.326 275.075 322.992 336.175 322.992 336.175L299.23 322.292Z" fill="#F7F7F7"/><path d="M305.503 323.887C305.503 323.887 264.139 280.768 203.268 282.275C203.268 282.275 168.326 283.13 164.886 302.992C167.006 312.798 287.737 344.905 287.737 344.905L305.503 323.887Z" fill="#F7F7F7"/><path d="M307.852 420.881L379.078 363.202C380.133 362.399 380.855 361.235 381.104 359.933L399.165 265.747C400.099 260.873 394.499 257.441 390.58 260.486L313.914 320.062L307.852 420.881Z" fill="#2B70C9"/><path d="M170.928 292.907L288.551 323.558L279.15 425.072L158.506 398.769C155.828 398.186 154.018 395.682 154.301 392.956L164.22 297.556C164.561 294.279 167.74 292.076 170.928 292.907Z" fill="#2B70C9"/><path d="M287.767 323.736L278.26 424.899C278.227 428.71 281.299 430.763 285.11 430.796L302.077 428.815C305.888 428.849 309.005 425.785 309.038 421.974L319.126 326.444L287.767 323.736Z" fill="#2B70C9"/><path d="M288.091 323.605L288.044 328.969C288.011 332.78 291.083 334.833 294.894 334.866L311.861 332.885C315.671 332.918 318.789 329.855 318.822 326.045L315.696 318.282L288.091 323.605Z" fill="#F7F7F7"/><path d="M115.98 282.557C133.758 309.944 175.739 337.802 175.739 337.802C193.906 347.446 181.342 369.916 165.631 371.614C46.5199 383.315 51.4609 259.624 88.9199 247.534C88.9199 247.534 98.5619 253.141 115.98 282.557Z" fill="#58CC02"/><path d="M416.509 311.747C414.302 315.12 409.958 320.392 402.922 323.5C393.021 327.513 382.708 328.317 377.976 322.071C375.332 317.897 378.551 311.826 384.058 303.697L407.216 271.38L416.509 311.747Z" fill="#58CC02"/></svg>